<svg width="800" height="700" viewBox="0 0 800 700" fill="none" xmlns="http://www.w3.org/2000/svg">
<rect width="800" height="700" fill="black"/>
<path d="M219.831 544.968L193.978 506.263L221.651 488.791L227.306 497.258L210.318 507.984L214.762 514.636L230.059 504.978L235.714 513.445L220.417 523.103L230.516 538.222L219.831 544.968ZM248.873 471.605L259.557 464.858L276.12 489.654C278.089 492.602 279.076 495.606 279.08 498.667C279.089 501.707 278.21 504.617 276.443 507.399C274.667 510.167 272.095 512.615 268.726 514.743C265.331 516.886 261.971 518.183 258.647 518.634C255.315 519.072 252.223 518.669 249.37 517.425C246.521 516.16 244.113 514.054 242.143 511.106L225.581 486.31L236.266 479.564L252.222 503.452C253.022 504.649 254.006 505.55 255.175 506.155C256.336 506.748 257.568 507.01 258.869 506.94C260.183 506.863 261.449 506.44 262.666 505.671C263.896 504.895 264.808 503.943 265.403 502.815C265.998 501.687 266.253 500.487 266.168 499.215C266.075 497.931 265.628 496.69 264.829 495.493L248.873 471.605ZM290.489 500.357L264.636 461.652L275.321 454.906L295.519 485.144L311.431 475.098L317.086 483.565L290.489 500.357ZM321.405 480.838L295.552 442.133L306.237 435.387L326.435 465.625L342.347 455.578L348.002 464.045L321.405 480.838Z" fill="white"/>
<path d="M431.855 434.596C432.319 433.251 432.27 432.032 431.708 430.94C431.16 429.854 429.999 428.945 428.227 428.213C427.098 427.747 426.112 427.502 425.271 427.477C424.448 427.445 423.767 427.586 423.226 427.901C422.686 428.215 422.281 428.663 422.012 429.243C421.776 429.714 421.671 430.186 421.697 430.657C421.743 431.122 421.92 431.602 422.23 432.099C422.546 432.582 422.998 433.091 423.586 433.626C424.174 434.161 424.904 434.723 425.777 435.314L428.779 437.383C430.807 438.772 432.447 440.179 433.701 441.603C434.954 443.027 435.859 444.468 436.416 445.926C436.978 447.372 437.214 448.837 437.124 450.321C437.047 451.81 436.682 453.319 436.031 454.847C434.869 457.471 433.234 459.424 431.126 460.705C429.017 461.985 426.534 462.597 423.677 462.539C420.833 462.487 417.704 461.756 414.29 460.348C410.784 458.901 407.949 457.124 405.785 455.017C403.634 452.916 402.303 450.5 401.791 447.769C401.297 445.03 401.774 441.985 403.222 438.634L413.621 442.926C413.153 444.177 413.012 445.333 413.2 446.393C413.388 447.454 413.887 448.405 414.697 449.247C415.52 450.093 416.628 450.804 418.02 451.378C419.188 451.861 420.229 452.121 421.142 452.16C422.055 452.199 422.826 452.048 423.454 451.708C424.083 451.369 424.546 450.876 424.843 450.231C425.097 449.613 425.127 448.996 424.932 448.377C424.756 447.752 424.307 447.075 423.587 446.347C422.872 445.607 421.837 444.765 420.482 443.822L416.84 441.304C413.603 439.063 411.347 436.618 410.07 433.971C408.811 431.316 408.871 428.429 410.248 425.31C411.343 422.766 412.995 420.829 415.203 419.497C417.431 418.158 420.005 417.461 422.927 417.407C425.861 417.358 428.924 417.992 432.114 419.309C435.371 420.653 437.951 422.355 439.856 424.416C441.761 426.478 442.928 428.757 443.356 431.253C443.804 433.743 443.463 436.298 442.334 438.92L431.855 434.596ZM447.585 436.662L451.404 427.914L486.462 442.382L482.643 451.13L470.51 446.124L456.869 477.366L446.076 472.912L459.717 441.669L447.585 436.662ZM478.51 486.297L466.693 481.42L497.467 446.924L512.436 453.101L508.29 498.587L496.472 493.71L500.3 461.091L499.985 460.961L478.51 486.297ZM483.193 469.609L505.409 478.778L501.863 486.901L479.646 477.732L483.193 469.609ZM558.849 489.954L547.741 485.37C548.06 484.426 548.211 483.513 548.194 482.63C548.189 481.752 548.008 480.925 547.65 480.147C547.311 479.362 546.791 478.656 546.089 478.028C545.392 477.387 544.519 476.85 543.468 476.416C541.63 475.658 539.881 475.458 538.221 475.818C536.574 476.183 535.061 477.057 533.683 478.439C532.317 479.827 531.129 481.679 530.117 483.996C529.049 486.444 528.482 488.63 528.417 490.554C528.37 492.47 528.795 494.105 529.692 495.459C530.594 496.799 531.932 497.835 533.705 498.566C534.716 498.984 535.676 499.234 536.584 499.317C537.499 499.387 538.357 499.303 539.158 499.066C539.959 498.828 540.691 498.446 541.355 497.921C542.037 497.388 542.631 496.719 543.137 495.914L554.212 500.577C553.341 502.215 552.109 503.742 550.515 505.158C548.926 506.561 547.046 507.69 544.875 508.546C542.722 509.394 540.334 509.806 537.71 509.783C535.086 509.76 532.296 509.139 529.342 507.92C525.639 506.392 522.661 504.233 520.407 501.444C518.167 498.661 516.861 495.387 516.49 491.624C516.132 487.865 516.919 483.773 518.851 479.347C520.795 474.895 523.299 471.504 526.362 469.173C529.431 466.829 532.777 465.483 536.4 465.134C540.029 464.773 543.655 465.34 547.279 466.835C549.827 467.887 552.02 469.199 553.859 470.772C555.698 472.345 557.135 474.129 558.17 476.123C559.211 478.105 559.804 480.262 559.947 482.595C560.091 484.928 559.725 487.381 558.849 489.954ZM552.905 516.999L570.365 477.008L581.316 481.527L574.257 497.695L574.808 497.923L594 486.762L606.763 492.028L585.358 504.212L589.618 532.149L576.54 526.752L574.027 508.017L568.357 511.208L563.856 521.518L552.905 516.999Z" fill="white"/>
<path fill-rule="evenodd" clip-rule="evenodd" d="M400.572 129.444L187.429 251.111L189.714 498.889L252.572 460.613V373.522L400.572 286.111V129.444ZM342.857 233.333L252 286.111V305.555L342.857 252.778V233.333Z" fill="white"/>
<path d="M418.286 131.667L630.857 227.778V273.333V290L551.428 255.556L476.571 223.333V303.333V367.778L551.428 396.667L630.857 427.778V453.889V491.111L418.286 403.333V131.667Z" fill="white"/>
</svg>
